<?xml version="1.0" encoding="utf-8"?>
<!-- Generator: Adobe Illustrator 27.9.0, SVG Export Plug-In . SVG Version: 6.00 Build 0)  -->
<svg version="1.1" id="Layer_2_00000027587326979769702180000007791550035077528463_"
	 xmlns="http://www.w3.org/2000/svg" xmlns:xlink="http://www.w3.org/1999/xlink" x="0px" y="0px" viewBox="0 0 972.9 431.4"
	 style="enable-background:new 0 0 972.9 431.4;" xml:space="preserve">
<style type="text/css">
	.st0{fill:#FFFFFF;}
	.st1{fill:#009900;}
</style>
<g>
	<path class="st0" d="M884.9,170.5c-77.4-23.3-118.5,4.1-125.2,32c-11.4-12-27.6-19.9-48.2-19.9c-79.4,0-111.5,57.2-100.5,117.1
		c-12.4,3.3-27.1,9.3-44.3,19c90.8-162.6-2-241.9-52.9-73.1c-5.9,19.6-8.9,41.6-8.5,62.4c-12.1,2.8-26,8.4-41.4,17.5
		c4.8-10.2,24.8-38,34.4-96.9c17.6-108.9-58.9-116.1-89.7,13.2c-13.1-47.8-40.8-88.5-80.1-85.6c-31.5,2.4-53.5,30.8-66.4,67.4
		c-4.3-38.9-19.5-66.8-40.5-65.5c-41.2,2.7-34.8,78.5-30.9,107.6c-4.3-24.5-17.1-80.4-43.2-80.4c-41.7,0.1-37.3,107-37.3,107
		s-4.2-105.9-55.9-96.7C-21.8,209.2,19,432.2,92.1,427.4c58.5-3.7,61-101.3,60.4-130.3c1.3,24,8.5,93.4,48.5,94.6
		c24.7,0.8,39.1-24.3,48.4-55.8c4.1,36.5,17.1,63.6,38.7,62.4c40.9-2.2,44.6-62.8,44.1-91.2c2.1,26,10.5,77.7,44.2,76.4
		c14.2-0.6,24.4-9.9,31.1-24.5c11.4,30.3,36.1,46.3,78.4,29.7c14.7-5.8,26.7-12.1,36.3-18.5c12.7,17.4,33,25.3,62.4,15.1
		c22-7.6,39-17.8,51.1-28.6c59.1,73.7,176.9-3,125-50.1l0,0c16.7-16.8,22.4-42.6,17.7-66.3c12.5,5.8,30.8,7,54.9-0.2
		c-57.8,36.3-71,159.9-25.2,170.9c43.8,10.5,93.8-93.7,69.4-157C955.2,341.1,1012.7,209,884.9,170.5z"/>
</g>
<path class="st1" d="M358.5,223.6c-12.7,2.6-22.5,11.1-26,21.5c-0.1,0.4-0.7,0.4-0.8-0.1c-2.9-15.6-16.4-29.2-34.9-33.3
	c-1.1-0.2-2.1,0.5-2.3,1.6c-4.4,34.7,34.4,43.8,37.1,43.8c2.4,0,31-5.7,29.2-31.8C360.6,224.2,359.6,223.3,358.5,223.6z"/>
<path class="st1" d="M737.1,243.3c-12.7,2.6-22.5,11.1-26,21.5c-0.1,0.4-0.7,0.4-0.8-0.1c-2.9-15.6-16.4-29.2-34.9-33.3
	c-1.1-0.2-2.1,0.5-2.3,1.6c-4.4,34.7,34.4,43.8,37.1,43.8c2.4,0,31-5.7,29.2-31.8C739.3,243.9,738.2,243.1,737.1,243.3z"/>
<g>
	<path d="M472.5,149.3c-0.6,0-1.2,0-1.8,0.1C471.2,149.4,471.8,149.3,472.5,149.3z"/>
	<path d="M457.2,154.9L457.2,154.9L457.2,154.9z"/>
	<path d="M485.2,154.9L485.2,154.9L485.2,154.9z"/>
	<path d="M248,155l24.8,0.1c1.2,0,2.1-0.9,2.1-2.1v-48c0-1.2,1-2.1,2.1-2.1h22.6c33.4,0,55.9-16.6,55.9-48s-22.4-47-56.1-47H248
		c-1.2,0-2.1,1-2.1,2.1v142.8C245.9,154,246.9,155,248,155z M274.9,33.1c0-1.2,1-2.1,2.1-2.1h15.7c20.5,0,33.2,4.6,33.2,23.8
		c0,16.8-11.3,24.9-28.6,24.9L277,79.6c-1.2,0-2.1-1-2.1-2.1V33.1z"/>
	<path d="M369.8,24.4h25.4c1.2,0,2.1-1,2.1-2.1V2.1c0-1.2-1-2.1-2.1-2.1h-25.4c-1.2,0-2.1,1-2.1,2.1v20.2
		C367.7,23.5,368.6,24.4,369.8,24.4z"/>
	<path d="M394.7,42.2h-24.2c-1.2,0-2.1,1-2.1,2.1v108.5c0,1.2,0.9,2.1,2.1,2.1l24.2,0.1c1.2,0,2.1-0.9,2.1-2.1V44.3
		C396.8,43.1,395.8,42.2,394.7,42.2z"/>
	<path d="M724.9,136.2h-4.4c-7.9,0-9-3.4-9-15V77c0-23.3-13.8-37.3-48-37.3c-18.5,0-44.4,7.2-47.8,32c-0.2,1.2,0.7,2.3,1.9,2.4
		l23.3,1.8c1.1,0.1,2.1-0.7,2.3-1.8c1.9-12.1,12.2-14.8,20.3-14.8c15.9,0,19.6,8.1,19.6,18.4v7.5c0,1.1-0.9,2.1-2,2.1L665,88
		c-28.2,1.1-53.5,5.9-53.5,35.5c0,27,22.1,34.1,37.6,34.1c10.9,0,23.5-3.7,32.1-16.3c1.1-1.6,3.5-1,3.8,0.8c2,11.4,9.4,15.5,25,15.5
		c5.8,0,11.6-1.6,15.3-2.3c1-0.2,1.7-1.1,1.7-2.1v-14.9C727,137.2,726.1,136.2,724.9,136.2z M658.6,136.5c-6,0-18.4-1.5-18.4-14.8
		c0-13.4,10.8-16.9,24.4-17.3l16.4-0.6c1.2,0,2.2,0.9,2.2,2.1v1.4C683.3,126.6,671.3,136.5,658.6,136.5z"/>
	<path d="M67.8,199.6c-0.6-0.2-1.2-0.3-1.8-0.4C66.7,199.3,67.3,199.5,67.8,199.6z"/>
	<path d="M885.2,167.4c-99.6-30.1-125.5,22.6-127.5,27.2c-46.2-39.5-168.1-9-150.9,101.9c-9.3,2.8-19.5,6.9-30.4,12.4
		c58.1-112,21.9-152.2,20.1-154.1h4.6c1.2,0,2.1-1,2.1-2.1v-17.3c0-1.2-0.9-2.1-2.1-2.1h-50.4c-1.8,0-2.8-2-1.7-3.4l52.2-68.5
		c0.3-0.4,0.4-0.8,0.4-1.3V44.2c0-1.2-1-2.1-2.1-2.1h-85c-1.2,0-2.1,0.9-2.1,2.1v17.2c0,1.2,0.9,2.1,2.1,2.1h47.3
		c1.8,0,2.8,2,1.7,3.4l-52.2,68.5c-0.3,0.4-0.4,0.8-0.4,1.3v16.1c0,1.2,0.9,2.1,2.1,2.1h46.6c-41.1,30.8-58.7,115.3-57.8,149.7
		c-8.1,2.1-17.4,5.6-28,10.9c12.4-22.7,49.3-116.8,21.1-160.7h4.2c1.2,0,2.1-1,2.1-2.1v-17.3c0-1.2-0.9-2.1-2.1-2.1h-50.3
		c-1.8,0-2.8-2-1.7-3.4l52.2-68.5c0.3-0.4,0.4-0.8,0.4-1.3V44.2c0-1.2-0.9-2.1-2.1-2.1h-85c-1.2,0-2.1,0.9-2.1,2.1v17.2
		c0,1.2,0.9,2.1,2.1,2.1H460c1.8,0,2.7,2,1.7,3.4l-52.2,68.5c-0.3,0.4-0.4,0.8-0.4,1.3v16.1c0,1.2,0.9,2.1,2.1,2.1h34.3
		c-5.1,5-23.2,23.7-37,72.4c-5.1-14.9-28.8-79-80.1-75.2c-29.1,2.2-50.3,25.3-64.2,56.6c-8.5-44.3-28-55.6-42.4-54.7
		c-21,1.3-37,19.8-37.5,68.6c-9.7-27.5-21.9-41.3-36.4-41.3c-20.5,0-34.6,22.1-39.6,67.6c-12.4-52.1-36.1-60.6-54.4-57.2
		C-5.2,202.3,1,326.6,38.4,391.9c36.5,63.7,98,49,113.6-35c1.1-5.8,2.9-17,3-16.6c17.5,70.2,69.4,73.1,93.2,11.9
		c6.5,31.1,20.4,49.6,38.7,49.6c0,0,38.2,4.5,47.4-59.6c9,33.7,25.1,45.3,42.5,44.7c12.6-0.5,23.1-7.2,30.7-19.5
		c6.9,14.1,20.7,30.6,47.6,31.4c28,0.8,45.7-10.6,66.7-23.9c1.6,1.9,13.9,18.2,38.9,18.2c14,0,46.6-8.3,74.7-31.5
		c27.8,32.1,64,29,64,29c60.3-0.7,76.7-47.3,77.1-49c-1.1,12.3-3.7,65.6,29.9,73.6c44.1,10.5,91.8-81.5,78.2-147.4
		C961.1,336.6,1013.7,206.2,885.2,167.4z M245.6,335.7c-8.8,29.7-22.2,52.7-44.4,52.1c-43.8-1.3-45-98.2-45.1-99.2
		c-0.3-4.6-7.7-4.8-7.7,0.2c0,0.1,7.9,130.1-56.5,134.5C23.6,428-16.3,211.7,55.1,199.1c46.5-8.2,51.4,92.8,51.4,92.9
		c0,0.1,0.1,5.2,4.1,5.2s3.7-5.3,3.7-5.3c-0.3-12.4-1-102.7,33.5-102.7c29.4,0,41,88.2,41.1,88.7c0.6,2.4,2.8,3.3,4.7,2.9
		c1.7-0.4,3.2-1.8,3-4.2c-0.1-1.3-20.5-111.9,25.5-114.6c6.6-0.4,30.1,4.1,36.4,61.5C240.2,275.6,244.5,325.9,245.6,335.7z
		 M376.4,379.2c-40.4,1.6-40.9-86.5-40.9-87.4c-0.4-4.9-7.6-4.3-7.6,0.3c0,4.4,8.6,99.5-39.8,101.9c-55.5,2.8-49.3-227.6,40.9-234.3
		C413.7,153.4,444.6,376.5,376.4,379.2z M412.1,358.7c12.7-29.3,12.1-76,0.7-117.5c28.9-120.4,99.1-120.2,81.9-13.7
		c-9.5,58.7-33.5,94.6-34.1,96c-1.3,3,2,7,5.4,5c64.4-38.3,85.1-11.9,83.9,1C547.1,359.9,441.5,432.1,412.1,358.7z M528.3,370.6
		c49.5-35.5,32.5-76.8-18.9-67.6c0.1-19.3,3.2-39.3,8.4-56.6c28.1-92.8,60.5-91.3,61.7-91.3c26,0,38.3,64.8-15.7,161.4
		c-0.8,1.5-0.6,3.4,0.7,4.6c1.2,1.2,3.1,1.5,4.6,0.7c14.3-8,27.5-13.9,39.2-17.5c2.8-0.8,50.4-15.1,46.5,16.2
		C650.2,356.9,562.7,411,528.3,370.6z M768,343.2c-13.3,34.8-84.3,62.1-126.7,13.3c37-35.2,23.8-73.5-27-62
		c-15.4-103,99.6-130.8,140.6-91.9c-5.2,23,10.2,36.4,20.7,41.3c11.7,79.1-76.5,88.8-94.4,66l0,0c-1.2-1.8-3.4-2.4-5.3-1.3
		c-1.8,1.1-2.4,3.4-1.3,5.4c9.7,17.6,58.6,22.1,86.3-2.7C772.3,323.3,771.1,335.2,768,343.2z M766.4,305.9
		c21.4-24.8,17.4-58.5,17.4-58.9c9.4,2.6,20.6,3,33.1,1.1c-21.4,20.7-34.5,53.1-39.1,83.6C777.6,322.4,773.8,313.6,766.4,305.9z
		 M879.6,251.9c-2.9-3.3-7.9,0.1-6.4,4c23.8,61.7-25.4,161.3-64.9,151.9c-41.1-9.7-28.9-127.2,26.4-164c1.6-1.1,2.2-3.2,1.4-4.7
		c-1.3-2.6-4.1-2.4-4.7-2.2c-104.1,35.3-94.8-105.9,51.6-62C1003.5,211.1,952.6,334.8,879.6,251.9z"/>
</g>
</svg>
