<?xml version="1.0" encoding="utf-8"?>
<!-- Generator: Adobe Illustrator 27.9.0, SVG Export Plug-In . SVG Version: 6.00 Build 0)  -->
<svg version="1.1" id="Layer_2_00000016775533969669052770000002390063086692344247_"
	 xmlns="http://www.w3.org/2000/svg" xmlns:xlink="http://www.w3.org/1999/xlink" x="0px" y="0px" viewBox="0 0 1057.6 1033.8"
	 style="enable-background:new 0 0 1057.6 1033.8;" xml:space="preserve">
<style type="text/css">
	.st0{fill:#FEE4D2;}
	.st1{fill:#FF3333;}
	.st2{fill:#FFFFFF;}
	.st3{fill:#009900;}
	.st4{fill:none;}
</style>
<g>
	<path class="st0" d="M217.8,634.7c-30.1-38.1-52.3-66.1-43.2-91.1c41.2-113.3,694.3-12.2,710.1,150.2
		C894.7,795.6,482.1,968.9,217.8,634.7L217.8,634.7z"/>
	<path d="M889,692.2c-5.4-56.3-80.2-98.9-142-124.8c-75.3-31.6-176.4-57.1-277.4-70.2c-74.5-9.6-144.1-11.7-196-5.7
		c-58.5,6.7-94.1,23.3-103,48.2c-9.9,27.5,12.6,56.3,43.8,96.1c42,53.5,90.1,97.1,143,129.6c47.2,29,98.4,49.2,152.1,60
		c30.5,6.2,62.1,9.3,94,9.3l0,0c60.9,0,120.8-11.4,173-32.9C847.3,772.6,892.6,728.6,889,692.2z M261.7,638.1
		c47.9-41.5,76.6-67.2,72.1-75.1c-1.9-3.3-8.2-2.8-20.9,1.7c-91.3,32.5-123.7,16.8-134.8-2.3c-1.8-7.3-1.6-13.8,0.6-19.9
		c7.7-21.5,40.9-36.2,95.9-42.5c19.1-2.2,40.7-3.3,64.4-3.3c39.2,0,84,3.1,129.6,9c100.2,12.9,200.5,38.3,275.1,69.6
		c85.5,35.8,132.8,76.5,136.7,117.6c3.1,32.5-40,72.9-107.2,100.6c-78.8,32.4-174.3,40.9-262,23.1c-52.7-10.7-102.9-30.5-149.3-58.9
		c-43.4-26.6-83.7-61.1-119.9-102.5C248.2,649.9,254.9,644.1,261.7,638.1z"/>
	<g>
		<path class="st1" d="M223.4,547.1c-5.8-10.3,70.5-37.4,161.4-34.4c155.4,5,256.7,34.7,312.9,52.6c48.2,15.3,62.5,28.1,61.4,30.8
			c-1.1,2.9-32.2-11.1-102.7-30c-29.3-7.9-93.7-25.4-190.5-31.2C335.4,526.9,230.6,559.8,223.4,547.1L223.4,547.1z"/>
		<path d="M762.9,593.1c-4-8.3-29.1-20.9-63.9-31.9C629.6,539,531.1,513,384.9,508.3c-37-1.2-76.1,2.6-110.3,10.5
			c-28.8,6.7-50.3,15.8-54.7,23c-2.1,3.5-0.9,6.3-0.3,7.4c0.1,0.1,0.1,0.2,0.2,0.3c4.5,7.2,19,5.7,60.2,0.1
			c44.1-6,110.8-15,185.7-10.5c95.3,5.8,158.3,22.7,188.6,30.8l1,0.3c37.6,10.1,64.5,18.9,80.7,24.3c7,2.3,12.6,4.1,16.3,5.2
			c1.8,0.5,3.9,1.1,5.8,1.1c3.2,0,4.5-1.7,5.1-3.1C763.6,596.6,763.9,595,762.9,593.1z M740.7,586.9c-0.7-0.2-1.3-0.4-2-0.7
			c-16.2-5.3-43.2-14.2-81.1-24.4l-1-0.3c-30.6-8.2-94.2-25.3-190.4-31.1c-13.7-0.8-27.8-1.2-42-1.2c-58.4,0-108.7,6.8-145.4,11.8
			c-16.4,2.2-29.3,4-38.7,4.5c-6.9,0.4-10.3,0-11.8-0.3c3.4-3,16.6-10.3,45-17.2c19.8-4.8,60.6-12.7,111.5-11.1
			c145.1,4.7,242.9,30.5,311.8,52.4C718.1,576.3,731.9,582.3,740.7,586.9z"/>
	</g>
	<g>
		<g>
			<path class="st0" d="M884.7,694.7c5.1,41.7-48.1,71.9-162.6,183.1C601.5,995,610.9,1034.4,544.2,1029
				c-56.9-4.6-129.5-78.9-216.4-189C264,759.2,176.1,719.7,180.3,662.8c4.3-56.9,101.4-86,143.3-99.2
				c144.7-45.8,265.2-26.3,461.9,43.8C850.8,630.6,880.8,662.9,884.7,694.7L884.7,694.7z"/>
		</g>
		<path d="M889,694.2c0-0.1,0-0.3,0-0.3c-2.2-17.6-11.6-34.2-27.9-49.3c-17.4-16.1-42.4-30.1-74.1-41.4
			c-108.2-38.6-183.4-58.2-251.4-65.6c-37.2-4-72.1-4.3-106.8-0.8c-34.9,3.5-69.7,10.9-106.4,22.5l-3.6,1.1
			c-44.9,14.2-138.3,43.7-142.7,101.9c-2.8,37,29.7,65.7,70.7,102.1c25,22.1,53.2,47.2,77.7,78.2c48.6,61.5,86.7,104.2,119.9,134.5
			c38.9,35.5,71.5,53.8,99.5,56.1c4.1,0.3,7.8,0.5,11.4,0.5c35.4,0,49.1-16.8,79.3-53.5c19.5-23.7,46.1-56.2,90.6-99.3
			c32.1-31.2,59.7-56.3,82.1-76.6C866.1,750.9,893,726.4,889,694.2z M801.4,798c-6.8,6.2-26.4,21.5-47.2,37.8
			c-25.8,20.2-55,43-67.7,54.5c-18.8,17.1-35.4,33-50.1,46.9c-81.5,77.8-109,104-186.2,33.6c-32.9-30-70.7-72.4-119-133.5
			c-25-31.6-53.6-56.9-78.8-79.3c-39.3-34.8-70.3-62.3-67.8-95c3.9-52.4,93.6-80.7,136.7-94.3l3.6-1.1
			c36.1-11.4,70.3-18.7,104.7-22.2c15.8-1.6,32-2.4,48-2.4c18.6,0,37.3,1,57,3.2c67.3,7.3,141.9,26.8,249.5,65.1
			c58.1,20.7,92.3,50.5,96.4,83.9c0,0.1,0,0.3,0,0.3C883.7,723.2,857.9,746.6,801.4,798z"/>
	</g>
	<g>
		<path d="M418.5,699.9c-14.9-0.6-28.6-0.6-40.7,0c-1.2,0.1-2.2,0.6-3,1.4c-0.8,0.9-1.2,2-1.1,3.1c0.1,2.4,2.2,4.2,4.5,4.1
			c11.8-0.6,25.2-0.6,39.8,0h0.3c2.3,0,4.2-1.8,4.3-4.1C422.7,702,420.9,700,418.5,699.9z M418.3,707L418.3,707L418.3,707L418.3,707
			z"/>
		<path d="M453.1,702.2c-6.6-0.6-12.4-1.1-17.8-1.4c-1.1-0.1-2.3,0.3-3.1,1c-0.9,0.8-1.4,1.8-1.5,3c-0.2,2.4,1.6,4.4,4,4.6
			c5.3,0.4,11.1,0.8,17.6,1.4c0.1,0,0.3,0,0.4,0c2.3,0,4.1-1.7,4.3-3.9C457.2,704.6,455.4,702.5,453.1,702.2z"/>
		<path d="M579.3,721.7c-26.7-5.6-51.7-10.1-76.5-13.6c-10.8-1.5-20.9-2.8-30-3.8c-1.1-0.1-2.3,0.2-3.2,0.9
			c-0.9,0.7-1.5,1.8-1.6,2.9c-0.1,1.1,0.2,2.3,0.9,3.2c0.7,0.9,1.8,1.5,2.9,1.6c9.2,1,19.2,2.3,29.8,3.8
			c24.6,3.5,49.4,7.9,75.9,13.5c0.3,0.1,0.6,0.1,0.9,0.1c2,0,3.8-1.4,4.2-3.4C583.1,724.5,581.7,722.2,579.3,721.7z"/>
		<path d="M647.3,737.2c-4.7-1.1-9.5-2.2-14.4-3.3c-2.3-0.5-4.6,0.9-5.2,3.3c-0.5,2.3,0.9,4.7,3.3,5.2c4.9,1.1,9.6,2.2,14.3,3.3
			c0.3,0.1,0.6,0.1,1,0.1c2,0,3.8-1.4,4.2-3.4C651.1,740,649.6,737.7,647.3,737.2z"/>
		<path d="M692.9,747.8c-7-1.5-14.7-3.2-24.5-5.3c-1.1-0.3-2.3-0.1-3.3,0.6c-1,0.6-1.7,1.6-1.9,2.7c-0.3,1.1-0.1,2.3,0.6,3.3
			c0.6,1,1.6,1.7,2.7,1.9c9.9,2.2,17.7,3.9,24.6,5.4c0.3,0.1,0.6,0.1,0.9,0.1c2,0,3.8-1.4,4.2-3.4
			C696.7,750.6,695.2,748.3,692.9,747.8z"/>
		<path d="M830.9,751.6c-1-2.2-3.6-3.1-5.8-2c-23,11-57.5,11.8-108.7,2.5c-1.1-0.2-2.3,0-3.2,0.7c-1,0.7-1.6,1.7-1.8,2.8
			s0,2.3,0.7,3.2c0.7,1,1.7,1.6,2.8,1.8c24.2,4.4,44.4,6.5,62,6.5c21.3,0,38.4-3.2,52.1-9.7C831,756.3,831.9,753.7,830.9,751.6z"/>
	</g>
	<g>
		<path class="st1" d="M846.9,687.8C787.2,719.6,705.6,672,549.8,650c-128.7-18.2-171.4-3.6-179.5,5.5
			c-18.2,20.5-8,167.1-38.1,164.9c-20.8-1.5-2.6-104.5-4.6-104.6c-1.4-0.1-5.1,57.1-21.6,55.3c-11.6-1.3-15.9-15.8-14.7-34.2
			c2.3-35.9,9.7-54.8-2.1-70.6c-12.9-17.2-44.1,5.5-55.3-7.5c-36-41.7,137.6-111.2,300.3-94.5c92.7,9.5,106.2,35.3,235,45.5
			c41.1,3.3,79,9.5,93.6,35.2C871.8,660.7,869.9,675.6,846.9,687.8L846.9,687.8z"/>
		<path d="M866.7,643c-16.2-28.7-58.6-34.4-97-37.4c-71.1-5.6-106.3-15.9-140.4-25.8c-27.2-7.9-52.9-15.4-94.5-19.7
			c-63.2-6.5-133-0.7-196.4,16.4c-57.2,15.3-99.5,38-110.5,59c-4.9,9.4-3.9,18.5,2.8,26.3c6.9,7.9,18.1,5.9,28.9,4
			c10.7-1.9,20.9-3.8,26.2,3.3c7.5,10,6.1,21.9,3.8,41.5c-0.9,7.2-1.9,16.1-2.6,26.2c-1.5,23.2,5.3,37.4,18.5,38.8
			c5,0.6,9.4-2.1,13.1-7.9c-2.4,37.5,1.3,47.8,5.7,53.1c2.1,2.5,4.6,3.9,7.6,4.1c0.3,0,0.7,0,1,0c20.7,0,24.5-46.4,28.6-95.7
			c2.5-29.6,5.2-63,12-70.7c3.4-3.9,16.4-9.2,41.6-11.5c32.9-3,78-0.5,134,7.4c57.9,8.2,106.4,20.1,145.4,29.7
			c69.4,17.1,115.3,28.3,154.2,7.7l0.2-0.1c12.1-6.5,19.6-14.2,22.1-23C873.4,660.8,871.9,652.2,866.7,643z M329.6,740.9
			c0.5-3.7,0.9-7.1,1.2-9.9c1.8-15.4,0.3-18.5-1.3-19.4c-0.4-0.2-0.8-0.3-1.1-0.3c-0.4,0-0.8,0.1-1.1,0.3c-4,0.5-5,7.4-6.5,17.6
			c-0.7,4.8-1.5,10.2-2.7,15.4c-2.9,12.3-7.2,19.4-12.1,19.9c-3.6,0.3-6.7-2.9-7.4-4.6c-4.8-10.9-2.4-30.2-0.7-44.3l0.5-4.1
			c2.5-21,4.1-34.9-5.4-47.7c-8.5-11.3-22.3-8.8-34.6-6.6c-8.9,1.6-17.2,3.1-20.9-1.1c-4.4-5.1-4.9-10.3-1.7-16.6
			c19.8-38,161.3-84.8,298.3-70.8c40.8,4.2,66.2,11.6,93,19.4c34.5,10.1,70.1,20.5,142.1,26.2c36.2,2.9,76,8,90.2,33.2
			c4.2,7.5,2,17.2-4.9,22.1c-7.5,5.3-18.8,9.5-32.9,12.2c-32.5,6.2-113.6-6-146.9-11.5c-34.3-8.3-75.8-17.6-124.2-24.5
			c-52.2-7.4-97.3-10.1-130.3-7.9c-27.4,1.8-46.2,7.1-53,14.8c-7.7,8.7-18.6,71.5-21.7,101.4c-3.1,29.4-6.6,58.3-12.4,61.1
			c-0.4,0.2-1.1,0.4-2.3-0.4C321.1,808.6,326.6,764.5,329.6,740.9z M848.3,690.3L848.3,690.3L848.3,690.3L848.3,690.3z"/>
	</g>
	<path d="M786.6,639.3c-5.1-10.7-63.9-14.9-70.6-15.3h-0.2l-128.3,21.7l5,2c1.1,0.4,27.8,10.6,132,15.7l1.4,0.1c0.7,0,1.4,0,2.2,0
		c15.2,0,50.6-5.9,57.9-16.8C787.6,644.3,787.8,641.7,786.6,639.3z"/>
	<g>
		<g>
			<path class="st2" d="M571.9,618c0,0-41.9,6.9-52.7,7.3c-16.1,0.6-48.2-6.6-64.1-4.7c-4.6,0.6-13.1,5.3-17.7,5.8
				c-11.4,1.4-34.5-4.2-46-3.3c-10.5,0.8-30.7,9.9-41.3,9.2c-3.3-0.2-12.4-1.2-12.4-4.5c0-15.5,43-19.5,58.4-21.1
				c10.1-1.1,30.2,7.2,40.2,5.5c8.2-1.4,21.3-14.3,29.5-15.1c11.4-1.2,32.9,11.1,44.3,12.4c13.1,1.4,55.4-2.8,55.4-2.8L571.9,618
				L571.9,618z"/>
		</g>
		<path d="M575.6,615.7l-6.2-11.2c-0.8-1.5-2.5-2.4-4.2-2.2c-0.4,0-42.1,4.2-54.5,2.8c-4.4-0.5-10.8-2.9-17.5-5.5
			c-9.9-3.8-20.1-7.6-27.6-6.9c-5.3,0.5-11.2,4.4-17.3,8.4c-4.4,2.9-9.5,6.2-12.5,6.7c-4.4,0.7-11.9-1-19.3-2.7
			c-7.7-1.8-15.1-3.4-20.6-2.8l-1.7,0.2c-31.5,3.3-60.6,8.7-60.6,25.3c0,5.1,5.5,8.1,16.4,8.8c0.5,0,0.9,0,1.4,0
			c6.5,0,15.1-2.6,23.5-5.1c6.6-2,12.8-3.8,17-4.1c5-0.4,12.9,0.7,20.8,1.7c9.3,1.2,18.8,2.4,25.4,1.6c2.9-0.4,6.3-1.7,9.9-3.2
			c2.8-1.1,6-2.4,7.8-2.6c8.2-1,21.6,0.7,34.7,2.3c11.1,1.4,21.6,2.7,29.1,2.4c10.5-0.4,48.8-6.7,53.2-7.4c2.2-0.4,3.8-2.4,3.6-4.6
			C576.2,616.9,576,616.3,575.6,615.7z M491.3,618.6c-13.5-1.7-27.4-3.4-36.7-2.3c-2.9,0.4-6.3,1.7-10,3.2c-2.8,1.1-6,2.4-7.7,2.6
			c-5.5,0.7-14.5-0.5-23.2-1.6c-8.5-1.1-16.6-2.2-22.5-1.7c-5.1,0.4-11.8,2.4-18.8,4.5c-8.2,2.5-16.7,5-21.9,4.7
			c-4.1-0.3-6.8-0.9-8.1-1.4c1.5-4.9,12.3-11.1,52.6-15.4l1.7-0.2c4.1-0.5,11,1.1,17.8,2.7c8.2,1.9,16.6,3.8,22.7,2.8
			c4.8-0.8,10.2-4.3,15.8-8c4.8-3.1,10.2-6.7,13.4-7c5.5-0.6,15.2,3.1,23.7,6.4c7.3,2.8,14.2,5.4,19.6,6c11.4,1.3,42.6-1.5,53.5-2.5
			l1.9,3.5c-11,1.8-38.1,6-46.1,6.3C512.2,621.2,502,620,491.3,618.6z"/>
	</g>
	<g>
		<path class="st3" d="M550.8,458.2c-7.5-4.2-18.2,57.8-3,111.5c8.1,28.6,26,65.9,32.9,63.8C595,629.3,638.6,507.3,550.8,458.2
			L550.8,458.2z"/>
		<path d="M600.8,509.6c-8.9-23.8-25-42.3-47.8-55.1c-2.2-1.2-4.7-1-6.7,0.7c-1,0.8-2,2.2-3,4.1h-0.2l0.2,0.1
			c-7.8,15.9-12.2,67.1,0.4,111.6c5.8,20.4,21.7,59.9,32.8,66c1.2,0.7,2.5,1,3.7,1c0.6,0,1.2-0.1,1.8-0.3
			c10.9-3.2,22.5-36.4,25.6-63.9C610.1,550.6,607.8,528.4,600.8,509.6z M598.9,572.8c-3.5,31.5-14.9,53.2-18.9,56.3
			c-4.3-2.9-19.2-29.3-28-60.5c-13.5-47.7-5.9-96.2-1.2-105.4C600,492,602.1,544.2,598.9,572.8z"/>
	</g>
	<g>
		<path class="st3" d="M798.3,547.9c-5.3-8.5-23.5,1.2-43.5,6.9c-36,10.3-62.2,8.3-80.1,16.2c-23.1,10.3-95.4,55-93,64
			c5.4,20.4,104.7,21.1,144.3,3.1C773.7,616.4,808.7,564.4,798.3,547.9L798.3,547.9z"/>
		<path d="M802.2,546.1c-0.1-0.2-0.2-0.3-0.3-0.5c-5.8-9.3-19-4.8-34.3,0.5c-4.5,1.6-9.3,3.2-14.1,4.5c-17.6,5-32.7,7.1-46.1,8.9
			c-13.4,1.8-25,3.3-34.5,7.6c-12,5.3-36.3,19.4-56.7,32.8C575,627,576.6,633,577.5,636.2c1.1,4.3,4.8,7.9,10.8,10.8
			c11.4,5.4,32.1,8.5,56.8,8.5c32.5,0,64.9-5.2,82.7-13.3c37.7-17.2,67.7-52.5,74.9-76.7C805.2,557.3,805,550.7,802.2,546.1z
			 M794.5,562.9c-6.5,21.9-35.2,55.3-70.2,71.3c-33.7,15.3-108.7,16-132.2,4.9c-4-1.9-5.4-3.6-5.9-4.6c3.4-7.1,58.6-45.4,90.4-59.5
			c8.4-3.7,18.9-5.1,32.2-6.9c13.6-1.8,29.1-3.9,47.3-9.1c5-1.4,9.8-3.1,14.6-4.7c10.1-3.5,21.7-7.4,23.9-4.3l0.2,0.3
			C796.2,552.8,796.2,557.3,794.5,562.9z M795.9,549.4L795.9,549.4L795.9,549.4L795.9,549.4z"/>
	</g>
	<path d="M744.9,586c-1.3-2-4-2.6-6-1.3c-0.7,0.5-72.4,45.9-154,44.7c-2.4-83.6-16.5-107.3-17.1-108.3c-1.3-2-3.9-2.6-5.9-1.4
		c-2,1.2-2.7,3.9-1.4,5.9c0,0.1,3.5,6,7.2,21.9c3.4,15,7.8,42.1,8.8,86c0.1,2.2,1.8,4,4,4.2c0.4,0.1,0.8,0.2,1.2,0.2
		c2.2,0.1,4.3,0.1,6.4,0.1c82.7,0,154.8-45.7,155.6-46.2c1-0.6,1.6-1.6,1.9-2.7C745.8,588.1,745.6,587,744.9,586z"/>
	<g>
		
			<ellipse transform="matrix(0.9239 -0.3827 0.3827 0.9239 -296.5695 254.0448)" class="st2" cx="490.3" cy="872.5" rx="35.1" ry="35.1"/>
		<g>
			<g>
				<path class="st4" d="M522.6,872.5c0,18.4-15.5,33.3-34.1,32.2l0,0c4.3-6.4,7.3-14.5,8.3-23.4l-14.8-8.7l14.3-8.9
					c-1.6-9.1-5.1-17.1-10-23.2c1.3-0.2,2.6-0.3,4-0.3C508.1,840.2,522.6,854.7,522.6,872.5z"/>
			</g>
			<path d="M529.5,868.5c-1.8-18.5-16.6-33.4-35.2-35.2c-11.9-1.2-23.5,2.9-31.9,11.3c-8.4,8.4-12.5,20-11.4,31.9
				c1.8,18.5,16.6,33.4,35.2,35.2c1.3,0.1,2.7,0.2,4,0.2c10.5,0,20.5-4.1,27.9-11.6C526.6,892,530.7,880.3,529.5,868.5z
				 M484.9,872.5l13.1-8.1l-0.2-1c-1.4-8.2-4.4-15.6-8.7-21.7c0.4,0,0.8,0,1.1,0c17,0,30.8,13.8,30.8,30.8c0,8.5-3.4,16.5-9.6,22.4
				c-5.6,5.3-12.7,8.2-20.3,8.4c3.7-6.3,6.2-13.8,7.1-21.8l0.1-1L484.9,872.5z"/>
		</g>
	</g>
	<g>
		<circle class="st2" cx="593.9" cy="872.5" r="35.1"/>
		<g>
			<g>
				<path class="st4" d="M626.2,872.5c0,17.8-14.5,32.3-32.3,32.3c-0.6,0-1.2,0-1.8-0.1c4.3-6.4,7.3-14.5,8.3-23.4l-14.8-8.7
					l14.3-8.9c-1.6-9.1-5.1-17.1-10-23.2c1.3-0.2,2.6-0.3,4-0.3C611.7,840.2,626.2,854.7,626.2,872.5z"/>
			</g>
			<path d="M593.9,833.1c-21.7,0-39.4,17.7-39.4,39.4s17.7,39.4,39.4,39.4c21.8,0,39.4-17.7,39.4-39.4S615.6,833.1,593.9,833.1z
				 M594.8,903.3c3.7-6.3,6.2-13.8,7.1-21.8l0.1-1l-13.5-8l13.1-8.1l-0.2-1c-1.4-8.2-4.4-15.6-8.7-21.7c0.4,0,0.8,0,1.1,0
				c17,0,30.8,13.8,30.8,30.8C624.7,889.2,611.3,902.8,594.8,903.3z"/>
		</g>
	</g>
	<path d="M559.3,914.1c-1.2,0-2.2,0.5-3,1.3s-1.2,1.9-1.2,3.1c0,3.3-1.2,6.4-3.5,8.8s-5.4,3.7-8.7,3.7h-0.1c-3.3,0-6.4-1.3-8.7-3.5
		c-2.4-2.3-3.7-5.4-3.7-8.7c0-2.4-1.9-4.3-4.4-4.3c-1.2,0-2.2,0.5-3,1.3s-1.2,1.9-1.2,3.1c0.1,5.6,2.3,10.9,6.3,14.8
		c4,3.9,9.2,6,14.7,6h0.2c5.6-0.1,10.9-2.3,14.8-6.3c3.9-4,6.1-9.3,6-14.9C563.6,916,561.7,914.1,559.3,914.1z"/>
	<g>
		<path class="st2" d="M360.1,591.9c-1.3,0-2.5-0.9-2.8-2.2c-0.3-1.5,0.6-3,2.1-3.4c7.7-1.7,15.8-3.3,24.1-4.8
			c1.5-0.3,3,0.8,3.3,2.3s-0.8,3-2.3,3.3c-8.3,1.5-16.3,3.1-23.9,4.8C360.5,591.9,360.3,591.9,360.1,591.9z"/>
	</g>
	<g>
		<path class="st2" d="M303.1,756.2c-1.1,0-2.1-0.6-2.6-1.7c-3.4-7.7-2.3-15.7-1.1-23.3c0.1-0.9,0.3-1.8,0.4-2.7
			c0.2-1.5,1.6-2.6,3.2-2.4c1.5,0.2,2.6,1.6,2.4,3.2c-0.1,0.9-0.3,1.8-0.4,2.8c-1.1,7.5-2.1,14,0.7,20.2c0.6,1.4,0,3.1-1.4,3.7
			C303.9,756.1,303.5,756.2,303.1,756.2z"/>
	</g>
	<g>
		<path class="st2" d="M331.6,807.3c-1.2,0-2.4-0.8-2.7-2.1c-2.2-8-1.6-22.2-0.9-29.3c0.2-1.6,1.5-2.7,3.1-2.5s2.7,1.5,2.5,3.1
			c-0.9,8.7-1.1,21,0.7,27.2c0.4,1.5-0.5,3.1-2,3.5C332.1,807.3,331.8,807.3,331.6,807.3z"/>
	</g>
	<g>
		<path class="st2" d="M264,631.6c-0.7,0-1.4-0.3-2-0.8c-1.1-1.1-1.1-2.9,0-4c0.8-0.8,20.6-20.5,81.4-36.5c1.5-0.4,3.1,0.5,3.5,2
			s-0.5,3.1-2,3.5c-59,15.6-78.6,34.8-78.8,35C265.4,631.3,264.7,631.6,264,631.6z"/>
	</g>
</g>
<g>
	<path class="st2" d="M972.9,189.2c-85.9-25.9-131.5,4.6-138.9,35.5c-12.7-13.3-30.6-22-53.5-22c-88.1,0-123.7,63.5-111.5,129.9
		c-13.7,3.6-30.1,10.3-49.1,21c100.7-180.4-2.3-268.4-58.7-81.1c-6.6,21.8-9.9,46.2-9.4,69.2c-13.4,3.1-28.9,9.3-45.9,19.5
		c5.3-11.3,27.5-42.1,38.1-107.5c19.5-120.8-65.3-128.8-99.5,14.6c-14.6-53-45.3-98.2-88.8-94.9c-34.9,2.6-59.3,34.2-73.7,74.8
		c-4.8-43.2-21.7-74.1-44.9-72.7c-45.7,3-38.7,87.1-34.2,119.4c-4.8-27.2-19-89.2-48-89.2c-46.2,0.1-41.4,118.7-41.4,118.7
		s-4.7-117.5-62.1-107.3c-84.6,15.1-39.3,262.4,41.8,257.1c64.9-4.1,67.6-112.4,67-144.6c1.4,26.6,9.4,103.6,53.8,105
		c27.4,0.9,43.4-26.9,53.7-62c4.5,40.5,19,70.6,43,69.2c45.4-2.5,49.5-69.7,49-101.2c2.3,28.8,11.7,86.2,49,84.7
		c15.7-0.6,27.1-11,34.6-27.2c12.7,33.7,40.1,51.4,86.9,32.9c16.3-6.4,29.6-13.4,40.3-20.5c14.1,19.4,36.6,28.1,69.2,16.8
		c24.4-8.5,43.3-19.8,56.7-31.7c65.6,81.7,196.2-3.3,138.6-55.6l0,0c18.5-18.6,24.8-47.3,19.7-73.6c13.9,6.5,34.2,7.8,60.9-0.2
		c-64.1,40.3-78.7,177.4-27.9,189.6c48.6,11.7,104.1-104,77-174.2C1050.9,378.4,1114.7,231.9,972.9,189.2z"/>
</g>
<path class="st3" d="M388.9,248.1c-14.1,2.9-25,12.3-28.8,23.9c-0.1,0.4-0.8,0.4-0.9-0.1c-3.2-17.3-18.2-32.4-38.7-36.9
	c-1.2-0.2-2.3,0.6-2.6,1.8c-4.9,38.5,38.2,48.6,41.2,48.6c2.7,0,34.4-6.3,32.4-35.3C391.2,248.7,390.1,247.7,388.9,248.1z"/>
<path class="st3" d="M808.9,269.9c-14.1,2.9-25,12.3-28.8,23.9c-0.1,0.4-0.8,0.4-0.9-0.1c-3.2-17.3-18.2-32.4-38.7-36.9
	c-1.2-0.2-2.3,0.6-2.6,1.8c-4.9,38.5,38.2,48.6,41.2,48.6c2.7,0,34.4-6.3,32.4-35.3C811.4,270.6,810.1,269.7,808.9,269.9z"/>
<g>
	<path d="M515.4,165.6c-0.7,0-1.3,0-2,0.1C513.9,165.8,514.6,165.6,515.4,165.6z"/>
	<path d="M498.4,171.9L498.4,171.9L498.4,171.9z"/>
	<path d="M529.4,171.9L529.4,171.9L529.4,171.9z"/>
	<path d="M266.3,172l27.5,0.1c1.3,0,2.3-1,2.3-2.3v-53.3c0-1.3,1.1-2.3,2.3-2.3h25.1c37.1,0,62-18.4,62-53.3S360.7,8.8,323.3,8.8
		h-57c-1.3,0-2.3,1.1-2.3,2.3v158.4C263.9,170.9,265.1,172,266.3,172z M296.1,36.7c0-1.3,1.1-2.3,2.3-2.3h17.4
		c22.7,0,36.8,5.1,36.8,26.4c0,18.6-12.5,27.6-31.7,27.6l-22.5-0.1c-1.3,0-2.3-1.1-2.3-2.3V36.7z"/>
	<path d="M401.4,27.1h28.2c1.3,0,2.3-1.1,2.3-2.3V2.3c0-1.3-1.1-2.3-2.3-2.3h-28.2c-1.3,0-2.3,1.1-2.3,2.3v22.4
		C399.1,26.1,400.1,27.1,401.4,27.1z"/>
	<path d="M429,46.8h-26.8c-1.3,0-2.3,1.1-2.3,2.3v120.4c0,1.3,1,2.3,2.3,2.3L429,172c1.3,0,2.3-1,2.3-2.3V49.2
		C431.4,47.8,430.3,46.8,429,46.8z"/>
	<path d="M795.4,151.1h-4.9c-8.8,0-10-3.8-10-16.6v-49c0-25.9-15.3-41.4-53.3-41.4c-20.5,0-49.3,8-53,35.5c-0.2,1.3,0.8,2.6,2.1,2.7
		l25.9,2c1.2,0.1,2.3-0.8,2.6-2c2.1-13.4,13.5-16.4,22.5-16.4c17.6,0,21.7,9,21.7,20.4v8.3c0,1.2-1,2.3-2.2,2.3l-17.9,0.8
		c-31.3,1.2-59.4,6.5-59.4,39.4c0,30,24.5,37.8,41.7,37.8c12.1,0,26.1-4.1,35.6-18.1c1.2-1.8,3.9-1.1,4.2,0.9
		c2.2,12.6,10.4,17.2,27.7,17.2c6.4,0,12.9-1.8,17-2.6c1.1-0.2,1.9-1.2,1.9-2.3v-16.5C797.7,152.2,796.7,151.1,795.4,151.1z
		 M721.8,151.4c-6.7,0-20.4-1.7-20.4-16.4c0-14.9,12-18.8,27.1-19.2l18.2-0.7c1.3,0,2.4,1,2.4,2.3v1.6
		C749.2,140.5,735.9,151.4,721.8,151.4z"/>
	<path d="M66.3,221.5c-0.7-0.2-1.3-0.3-2-0.4C65.1,221.1,65.8,221.3,66.3,221.5z"/>
	<path d="M973.2,185.7c-110.5-33.4-139.2,25.1-141.5,30.2c-51.3-43.8-186.5-10-167.4,113.1c-10.3,3.1-21.6,7.7-33.7,13.8
		c64.5-124.3,24.3-168.9,22.3-171h5.1c1.3,0,2.3-1.1,2.3-2.3v-19.2c0-1.3-1-2.3-2.3-2.3h-55.9c-2,0-3.1-2.2-1.9-3.8l57.9-76
		c0.3-0.4,0.4-0.9,0.4-1.4V49c0-1.3-1.1-2.3-2.3-2.3H562c-1.3,0-2.3,1-2.3,2.3v19.1c0,1.3,1,2.3,2.3,2.3h52.5c2,0,3.1,2.2,1.9,3.8
		l-57.9,76c-0.3,0.4-0.4,0.9-0.4,1.4v17.9c0,1.3,1,2.3,2.3,2.3H612C566.4,206,546.9,299.8,547.9,338c-9,2.3-19.3,6.2-31.1,12.1
		c13.8-25.2,54.7-129.6,23.4-178.3h4.7c1.3,0,2.3-1.1,2.3-2.3v-19.2c0-1.3-1-2.3-2.3-2.3h-55.8c-2,0-3.1-2.2-1.9-3.8l57.9-76
		c0.3-0.4,0.4-0.9,0.4-1.4V49c0-1.3-1-2.3-2.3-2.3h-94.3c-1.3,0-2.3,1-2.3,2.3v19.1c0,1.3,1,2.3,2.3,2.3h52.6c2,0,3,2.2,1.9,3.8
		l-57.9,76c-0.3,0.4-0.4,0.9-0.4,1.4v17.9c0,1.3,1,2.3,2.3,2.3h38.1c-5.7,5.5-25.7,26.3-41.1,80.3c-5.7-16.5-32-87.6-88.9-83.4
		c-32.3,2.4-55.8,28.1-71.2,62.8c-9.4-49.2-31.1-61.7-47-60.7c-23.3,1.4-41.1,22-41.6,76.1c-10.8-30.5-24.3-45.8-40.4-45.8
		c-22.7,0-38.4,24.5-43.9,75c-13.8-57.8-40.1-67.2-60.4-63.5c-65.6,11.8-58.7,149.7-17.2,222.1c40.5,70.7,108.7,54.4,126-38.8
		c1.2-6.4,3.2-18.9,3.3-18.4c19.4,77.9,77,81.1,103.4,13.2c7.2,34.5,22.6,55,42.9,55c0,0,42.4,5,52.6-66.1
		c10,37.4,27.8,50.3,47.2,49.6c14-0.6,25.6-8,34.1-21.6c7.7,15.6,23,34,52.8,34.8c31.1,0.9,50.7-11.8,74-26.5
		c1.8,2.1,15.4,20.2,43.2,20.2c15.5,0,51.7-9.2,82.9-34.9c30.8,35.6,71,32.2,71,32.2c66.9-0.8,85.1-52.5,85.5-54.4
		c-1.2,13.6-4.1,72.8,33.2,81.7c48.9,11.6,101.9-90.4,86.8-163.5C1057.5,373.5,1115.8,228.8,973.2,185.7z M263.6,372.5
		c-9.8,33-24.6,58.5-49.3,57.8c-48.6-1.4-49.9-109-50-110.1c-0.3-5.1-8.5-5.3-8.5,0.2c0,0.1,8.8,144.3-62.7,149.2
		c-75.8,5.2-120-234.8-40.8-248.7c51.6-9.1,57,103,57,103.1c0,0.1,0.1,5.8,4.5,5.8c4.4,0,4.1-5.9,4.1-5.9
		c-0.3-13.8-1.1-113.9,37.2-113.9c32.6,0,45.5,97.9,45.6,98.4c0.7,2.7,3.1,3.7,5.2,3.2c1.9-0.4,3.6-2,3.3-4.7
		c-0.1-1.4-22.7-124.2,28.3-127.1c7.3-0.4,33.4,4.5,40.4,68.2C257.6,305.8,262.4,361.6,263.6,372.5z M408.7,420.7
		c-44.8,1.8-45.4-96-45.4-97c-0.4-5.4-8.4-4.8-8.4,0.3c0,4.9,9.5,110.4-44.2,113.1c-61.6,3.1-54.7-252.5,45.4-260
		C450.1,170.2,484.4,417.7,408.7,420.7z M448.3,398c14.1-32.5,13.4-84.3,0.8-130.4c32.1-133.6,110-133.4,90.9-15.2
		c-10.5,65.1-37.2,105-37.8,106.5c-1.4,3.3,2.2,7.8,6,5.5c71.5-42.5,94.4-13.2,93.1,1.1C598.1,399.3,481,479.4,448.3,398z
		 M577.3,411.2c54.9-39.4,36.1-85.2-21-75c0.1-21.4,3.6-43.6,9.3-62.8c31.2-103,67.1-101.3,68.5-101.3c28.8,0,42.5,71.9-17.4,179.1
		c-0.9,1.7-0.7,3.8,0.8,5.1c1.3,1.3,3.4,1.7,5.1,0.8c15.9-8.9,30.5-15.4,43.5-19.4c3.1-0.9,55.9-16.8,51.6,18
		C712.5,396,615.4,456,577.3,411.2z M843.2,380.8c-14.8,38.6-93.5,68.9-140.6,14.8c41.1-39.1,26.4-81.5-30-68.8
		c-17.1-114.3,110.5-145.1,156-102c-5.8,25.5,11.3,40.4,23,45.8c13,87.8-84.9,98.5-104.7,73.2l0,0c-1.3-2-3.8-2.7-5.9-1.4
		c-2,1.2-2.7,3.8-1.4,6c10.8,19.5,65,24.5,95.7-3C848,358.7,846.7,371.9,843.2,380.8z M841.4,339.4c23.7-27.5,19.3-64.9,19.3-65.3
		c10.4,2.9,22.9,3.3,36.7,1.2c-23.7,23-38.3,58.9-43.4,92.8C853.9,357.7,849.6,347.9,841.4,339.4z M967,279.5
		c-3.2-3.7-8.8,0.1-7.1,4.4c26.4,68.5-28.2,179-72,168.5c-45.6-10.8-32.1-141.1,29.3-182c1.8-1.2,2.4-3.6,1.6-5.2
		c-1.4-2.9-4.5-2.7-5.2-2.4c-115.5,39.2-105.2-117.5,57.2-68.8C1104.5,234.2,1048,371.5,967,279.5z"/>
</g>
</svg>
